<?xml version="1.0" standalone="no"?>
<!DOCTYPE svg PUBLIC "-//W3C//DTD SVG 20010904//EN"
 "http://www.w3.org/TR/2001/REC-SVG-20010904/DTD/svg10.dtd">
<svg version="1.0" xmlns="http://www.w3.org/2000/svg"
 width="730.000000pt" height="730.000000pt" viewBox="0 0 730.000000 730.000000"
 preserveAspectRatio="xMidYMid meet">

<g transform="translate(0.000000,730.000000) scale(0.100000,-0.100000)"
fill="#000000" stroke="none">
<path d="M1200 6373 c1 -5 38 -68 83 -140 45 -73 124 -202 176 -285 51 -84
117 -191 146 -238 29 -47 91 -148 139 -226 l86 -140 0 -1695 0 -1694 -70 -105
c-38 -58 -75 -112 -80 -120 -17 -24 -253 -387 -310 -475 -28 -44 -89 -137
-135 -207 l-84 -128 1983 0 1984 0 178 238 c99 130 181 239 184 242 3 3 62 79
130 170 68 91 147 194 174 230 28 36 80 104 116 151 36 47 107 140 158 207 50
67 92 122 92 124 0 2 -573 2 -1273 2 -699 -1 -1314 1 -1364 3 l-93 6 0 2043 0
2044 -1110 0 c-610 0 -1110 -3 -1110 -7z"/>
</g>
</svg>
